<svg xmlns="http://www.w3.org/2000/svg" xmlns:xlink="http://www.w3.org/1999/xlink" viewBox="0 0 350.16 333.5"><defs><style>.cls-1,.cls-2,.cls-3,.cls-4,.cls-5{stroke:#3a3935;stroke-miterlimit:10;}.cls-1{fill:url(#linear-gradient);}.cls-2{fill:none;}.cls-2,.cls-3,.cls-4,.cls-5{stroke-width:2px;}.cls-3{fill:url(#linear-gradient-2);}.cls-4{fill:url(#linear-gradient-3);}.cls-5{fill:url(#linear-gradient-4);}.cls-6{fill:#fff;}</style><linearGradient id="linear-gradient" x1="173.65" y1="207.14" x2="173.65" y2="1" gradientUnits="userSpaceOnUse"><stop offset="0" stop-color="#e8991e"/><stop offset="0" stop-color="#e9ab1a"/><stop offset="0.32" stop-color="#f5c31b"/><stop offset="0.68" stop-color="#fff990"/><stop offset="1" stop-color="#fff17e"/></linearGradient><linearGradient id="linear-gradient-2" x1="232.31" y1="207.14" x2="232.31" y2="53" xlink:href="#linear-gradient"/><linearGradient id="linear-gradient-3" x1="115" y1="206.27" x2="115" y2="71.33" xlink:href="#linear-gradient"/><linearGradient id="linear-gradient-4" x1="173.66" y1="92.05" x2="173.66" y2="1" xlink:href="#linear-gradient"/></defs><g id="Layer_2" data-name="Layer 2"><g id="Layer_1-2" data-name="Layer 1"><polygon class="cls-1" points="1.58 207.14 41.53 207.14 115 53 174.35 177.51 232.31 53 305.78 207.14 345.72 207.14 247.5 1 217.07 1 173.66 92.05 130.25 1 99.86 1 1.58 207.14"/><polyline class="cls-2" points="217.17 1 247.5 1 345.72 207.14 305.96 207.14"/><polyline class="cls-3" points="158.83 207.14 232.31 53 305.78 207.14 275.96 207.14 232.31 115.55 188.62 207.14"/><polyline class="cls-2" points="41.34 207.14 1.58 207.14 99.86 1 130.2 1"/><polygon class="cls-4" points="188.47 207.14 158.65 207.14 115 115.55 71.32 207.14 41.53 207.14 115 53 188.47 207.14"/><polygon class="cls-5" points="217.07 1 173.66 92.05 130.25 1 160.07 1 173.66 29.5 187.25 1 217.07 1"/><path class="cls-6" d="M15.85,333.14H5.61v-26H15.85v2.53H8.44v8.64h7v2.55h-7v9.74h7.41Z" transform="translate(-5.11)"/><path class="cls-6" d="M22.62,333.14H19.87V305.43h2.75Z" transform="translate(-5.11)"/><path class="cls-6" d="M32.73,313.26A4.76,4.76,0,0,1,36,314.42a6.91,6.91,0,0,1,1.92,3.12,14.22,14.22,0,0,1,.63,4.36v1.94H29.26a11.09,11.09,0,0,0,1.13,5.49,3.6,3.6,0,0,0,3.3,1.83,6.67,6.67,0,0,0,2.07-.32,8.13,8.13,0,0,0,2.1-1v2.46a8.26,8.26,0,0,1-2.12.92,8.5,8.5,0,0,1-2.35.31,5.83,5.83,0,0,1-3.95-1.31,7.38,7.38,0,0,1-2.2-3.58,17.71,17.71,0,0,1-.69-5.14,19.06,19.06,0,0,1,.7-5.56,7.15,7.15,0,0,1,2.07-3.46A5.06,5.06,0,0,1,32.73,313.26Zm0,2.25a2.69,2.69,0,0,0-2.42,1.5,10.63,10.63,0,0,0-1,4.64H36a12.71,12.71,0,0,0-.35-3,5.49,5.49,0,0,0-1.07-2.25A2.34,2.34,0,0,0,32.73,315.51Z" transform="translate(-5.11)"/><path class="cls-6" d="M45.09,333.14l-4.9-19.55H43l2.69,11.87c.16.72.32,1.45.45,2.2s.27,1.52.39,2.33h.14c.06-.46.15-1,.26-1.68s.28-1.37.47-2.17l2.88-12.55h2.82l-5,19.55Z" transform="translate(-5.11)"/><path class="cls-6" d="M60.87,313.23A4.31,4.31,0,0,1,64.74,315a9,9,0,0,1,1.16,5v13.18H63.81l-.41-2.78h-.07a6.83,6.83,0,0,1-1.1,1.7,4.4,4.4,0,0,1-1.46,1.07,4.52,4.52,0,0,1-1.89.37,3.77,3.77,0,0,1-2.48-.8A4.79,4.79,0,0,1,55,330.59a8.44,8.44,0,0,1-.47-2.83,5.91,5.91,0,0,1,1.68-4.5,7.1,7.1,0,0,1,4.75-1.75l2.23-.14V320a7,7,0,0,0-.64-3.43,2.22,2.22,0,0,0-2.07-1.09,5.72,5.72,0,0,0-1.72.28,10.08,10.08,0,0,0-2,.91l-.87-2.06a8.34,8.34,0,0,1,2.36-1.06A9.36,9.36,0,0,1,60.87,313.23Zm2.34,10.15-1.82.13a4.48,4.48,0,0,0-3.07,1.16,4.19,4.19,0,0,0-1,3A4.51,4.51,0,0,0,58,330.4a2.15,2.15,0,0,0,1.82.87,2.78,2.78,0,0,0,2.52-1.57,8.68,8.68,0,0,0,.9-4.32Z" transform="translate(-5.11)"/><path class="cls-6" d="M75.21,331.07a4.48,4.48,0,0,0,.89-.09,5.08,5.08,0,0,0,.86-.28v2.24a7,7,0,0,1-1.2.41,6.25,6.25,0,0,1-1.42.15,3.53,3.53,0,0,1-2.08-.57,3.27,3.27,0,0,1-1.19-1.7,8.87,8.87,0,0,1-.38-2.84V315.88H68.87v-1.49l1.94-.73.73-4.51h1.89v4.44h3.31v2.29H73.43v12.18a5.49,5.49,0,0,0,.36,2.27A1.43,1.43,0,0,0,75.21,331.07Z" transform="translate(-5.11)"/><path class="cls-6" d="M92,323.35a20.56,20.56,0,0,1-.39,4.18,10.37,10.37,0,0,1-1.2,3.21,5.45,5.45,0,0,1-4.93,2.76,5.37,5.37,0,0,1-2.81-.72,5.77,5.77,0,0,1-2-2,10.9,10.9,0,0,1-1.21-3.21,19.91,19.91,0,0,1-.41-4.19,18.58,18.58,0,0,1,.7-5.5,7,7,0,0,1,2.13-3.44,5.61,5.61,0,0,1,3.67-1.18,5.47,5.47,0,0,1,3.53,1.15,7,7,0,0,1,2.19,3.4A17.82,17.82,0,0,1,92,323.35Zm-10.17,0a19.79,19.79,0,0,0,.39,4.27,5.49,5.49,0,0,0,1.22,2.6,2.79,2.79,0,0,0,2.11.87,2.74,2.74,0,0,0,2.08-.85,5.45,5.45,0,0,0,1.2-2.58,23.79,23.79,0,0,0,0-8.58,5.45,5.45,0,0,0-1.2-2.58,2.74,2.74,0,0,0-2.1-.87,2.94,2.94,0,0,0-2.83,1.94A14.68,14.68,0,0,0,81.82,323.35Z" transform="translate(-5.11)"/><path class="cls-6" d="M102.46,313.25a5.66,5.66,0,0,1,.82.06,5.77,5.77,0,0,1,.85.2l-.42,2.82a2.66,2.66,0,0,0-.68-.2,6.1,6.1,0,0,0-.77-.05,2.34,2.34,0,0,0-1.47.52,4.36,4.36,0,0,0-1.14,1.47,8.66,8.66,0,0,0-.74,2.19,11.61,11.61,0,0,0-.24,2.69v10.19H95.92V313.59h2.14l.37,3.47h.18a10.14,10.14,0,0,1,1-2,4.43,4.43,0,0,1,1.27-1.34A2.78,2.78,0,0,1,102.46,313.25Z" transform="translate(-5.11)"/><path class="cls-6" d="M118.63,306.73a4.12,4.12,0,0,1,2.34.64,4,4,0,0,1,1.47,1.85,7.79,7.79,0,0,1,.5,2.94,9.37,9.37,0,0,1-.8,4,10.14,10.14,0,0,1-2.44,3.23l3.81,6.47a10.24,10.24,0,0,0,.74-2.25,13.63,13.63,0,0,0,.31-2.72h2.8a18,18,0,0,1-.69,3.84,15.27,15.27,0,0,1-1.46,3.6l3.13,4.81H125l-1.58-2.76a10.31,10.31,0,0,1-1.62,1.67,6.28,6.28,0,0,1-4.12,1.45,4.87,4.87,0,0,1-3-.9,5.26,5.26,0,0,1-1.8-2.47,9.88,9.88,0,0,1-.6-3.56,9.07,9.07,0,0,1,.43-2.88,8,8,0,0,1,1.32-2.46,12.72,12.72,0,0,1,2.31-2.25,20.08,20.08,0,0,1-1.21-2.31,10.9,10.9,0,0,1-.69-2.19,13.06,13.06,0,0,1-.22-2.43,6.9,6.9,0,0,1,.54-2.85,4,4,0,0,1,3.84-2.47Zm-1,14.12a8.89,8.89,0,0,0-1.48,1.66,5.61,5.61,0,0,0-.81,1.8,8.46,8.46,0,0,0-.25,2.17,5.7,5.7,0,0,0,.82,3.29,2.51,2.51,0,0,0,2.17,1.2,3.46,3.46,0,0,0,2.12-.7,7,7,0,0,0,1.78-2.1Zm.93-11.88a1.37,1.37,0,0,0-1.25.81,5,5,0,0,0-.44,2.33,10.5,10.5,0,0,0,.4,2.79,8.87,8.87,0,0,0,1.11,2.57A5.44,5.44,0,0,0,120,315.1a9.52,9.52,0,0,0,.45-3,4.66,4.66,0,0,0-.47-2.34A1.48,1.48,0,0,0,118.58,309Z" transform="translate(-5.11)"/><path class="cls-6" d="M148,333.14H137.73v-26H148v2.53h-7.41v8.64h7v2.55h-7v9.74H148Z" transform="translate(-5.11)"/><path class="cls-6" d="M160.68,328a6.45,6.45,0,0,1-.64,3,4.33,4.33,0,0,1-1.86,1.88,6.38,6.38,0,0,1-3,.64,9.14,9.14,0,0,1-2.48-.32,9,9,0,0,1-1.91-.77v-2.85a6.57,6.57,0,0,0,1.95,1.06,6.81,6.81,0,0,0,2.35.42,2.78,2.78,0,0,0,2.11-.78,3.11,3.11,0,0,0,.74-2.2,3.16,3.16,0,0,0-.31-1.45,3.56,3.56,0,0,0-1-1.17,11.93,11.93,0,0,0-1.75-1.19,16.07,16.07,0,0,1-2.15-1.55,5.82,5.82,0,0,1-1.45-1.84,5.72,5.72,0,0,1-.52-2.54,4.82,4.82,0,0,1,1.49-3.68,5.47,5.47,0,0,1,3.93-1.41,8.34,8.34,0,0,1,2.32.31,7.78,7.78,0,0,1,2.08.94l-1,2.2a7.56,7.56,0,0,0-1.6-.82,5.14,5.14,0,0,0-1.74-.3,2.85,2.85,0,0,0-2.05.73,2.58,2.58,0,0,0-.76,2,3.06,3.06,0,0,0,.3,1.41,3.69,3.69,0,0,0,1,1.14,17.85,17.85,0,0,0,1.84,1.25,19.11,19.11,0,0,1,2.12,1.55,6,6,0,0,1,1.44,1.83A5.74,5.74,0,0,1,160.68,328Z" transform="translate(-5.11)"/><path class="cls-6" d="M169.89,333.5a5.72,5.72,0,0,1-3.59-1.12,6.73,6.73,0,0,1-2.14-3.35,21.41,21.41,0,0,1,0-11,7.28,7.28,0,0,1,2.18-3.52,5.46,5.46,0,0,1,3.65-1.23,7.92,7.92,0,0,1,2,.23,6.62,6.62,0,0,1,1.65.66l-.87,2.26a6.21,6.21,0,0,0-1.31-.53,4.75,4.75,0,0,0-1.27-.18,2.9,2.9,0,0,0-2.16.88,5.72,5.72,0,0,0-1.32,2.61,16.91,16.91,0,0,0-.46,4.31,17.12,17.12,0,0,0,.44,4.2,5.39,5.39,0,0,0,1.32,2.56,3,3,0,0,0,2.19.86,5.93,5.93,0,0,0,1.6-.22,8.14,8.14,0,0,0,1.63-.65v2.32a6.53,6.53,0,0,1-1.74.71A7.68,7.68,0,0,1,169.89,333.5Z" transform="translate(-5.11)"/><path class="cls-6" d="M182,313.23a4.31,4.31,0,0,1,3.87,1.73,9,9,0,0,1,1.16,5v13.18h-2.09l-.41-2.78h-.07a6.83,6.83,0,0,1-1.1,1.7,4.4,4.4,0,0,1-1.46,1.07,4.52,4.52,0,0,1-1.89.37,3.77,3.77,0,0,1-2.48-.8,4.79,4.79,0,0,1-1.42-2.11,8.44,8.44,0,0,1-.47-2.83,5.91,5.91,0,0,1,1.68-4.5,7.1,7.1,0,0,1,4.75-1.75l2.23-.14V320a7,7,0,0,0-.64-3.43,2.22,2.22,0,0,0-2.07-1.09,5.72,5.72,0,0,0-1.72.28,9.82,9.82,0,0,0-2,.91l-.87-2.06a8.34,8.34,0,0,1,2.36-1.06A9.36,9.36,0,0,1,182,313.23Zm2.34,10.15-1.82.13a4.48,4.48,0,0,0-3.07,1.16,4.19,4.19,0,0,0-1,3,4.51,4.51,0,0,0,.66,2.71,2.15,2.15,0,0,0,1.82.87,2.78,2.78,0,0,0,2.52-1.57,8.68,8.68,0,0,0,.9-4.32Z" transform="translate(-5.11)"/><path class="cls-6" d="M194.49,333.14h-2.74V305.43h2.74Z" transform="translate(-5.11)"/><path class="cls-6" d="M204.46,313.23a4.33,4.33,0,0,1,3.87,1.73,9,9,0,0,1,1.15,5v13.18H207.4l-.41-2.78h-.07a6.83,6.83,0,0,1-1.1,1.7,4.34,4.34,0,0,1-1.47,1.07,4.44,4.44,0,0,1-1.88.37,3.77,3.77,0,0,1-2.48-.8,4.79,4.79,0,0,1-1.42-2.11,8.44,8.44,0,0,1-.47-2.83,5.91,5.91,0,0,1,1.68-4.5,7.1,7.1,0,0,1,4.75-1.75l2.23-.14V320a7,7,0,0,0-.64-3.43,2.22,2.22,0,0,0-2.07-1.09,5.72,5.72,0,0,0-1.72.28,9.82,9.82,0,0,0-2,.91l-.87-2.06a8.34,8.34,0,0,1,2.36-1.06A9.36,9.36,0,0,1,204.46,313.23Zm2.33,10.15-1.81.13a4.48,4.48,0,0,0-3.07,1.16,4.19,4.19,0,0,0-1,3,4.51,4.51,0,0,0,.66,2.71,2.15,2.15,0,0,0,1.82.87,2.78,2.78,0,0,0,2.52-1.57,8.69,8.69,0,0,0,.89-4.32Z" transform="translate(-5.11)"/><path class="cls-6" d="M218.8,331.07a4.48,4.48,0,0,0,.89-.09,4.7,4.7,0,0,0,.85-.28v2.24a6.65,6.65,0,0,1-1.19.41,6.25,6.25,0,0,1-1.42.15,3.53,3.53,0,0,1-2.08-.57,3.27,3.27,0,0,1-1.19-1.7,8.87,8.87,0,0,1-.38-2.84V315.88h-1.82v-1.49l1.94-.73.73-4.51H217v4.44h3.31v2.29H217v12.18a5.49,5.49,0,0,0,.36,2.27A1.43,1.43,0,0,0,218.8,331.07Z" transform="translate(-5.11)"/><path class="cls-6" d="M235.58,323.35a20.56,20.56,0,0,1-.39,4.18,10.37,10.37,0,0,1-1.2,3.21,5.45,5.45,0,0,1-4.93,2.76,5.43,5.43,0,0,1-2.82-.72,5.83,5.83,0,0,1-2-2,10.63,10.63,0,0,1-1.21-3.21,19.91,19.91,0,0,1-.41-4.19,18.58,18.58,0,0,1,.7-5.5,7,7,0,0,1,2.13-3.44,5.59,5.59,0,0,1,3.67-1.18,5.47,5.47,0,0,1,3.53,1.15,7,7,0,0,1,2.19,3.4A17.82,17.82,0,0,1,235.58,323.35Zm-10.17,0a19.79,19.79,0,0,0,.39,4.27,5.49,5.49,0,0,0,1.22,2.6,3,3,0,0,0,4.19,0,5.45,5.45,0,0,0,1.2-2.58,23.79,23.79,0,0,0,0-8.58,5.45,5.45,0,0,0-1.2-2.58,2.75,2.75,0,0,0-2.1-.87,2.94,2.94,0,0,0-2.83,1.94A14.68,14.68,0,0,0,225.41,323.35Z" transform="translate(-5.11)"/><path class="cls-6" d="M246.05,313.25a5.66,5.66,0,0,1,.82.06,5.77,5.77,0,0,1,.85.2l-.42,2.82a2.66,2.66,0,0,0-.68-.2,6.1,6.1,0,0,0-.77-.05,2.34,2.34,0,0,0-1.47.52,4.36,4.36,0,0,0-1.14,1.47,8.66,8.66,0,0,0-.74,2.19,11.61,11.61,0,0,0-.24,2.69v10.19h-2.75V313.59h2.14l.37,3.47h.18a10.14,10.14,0,0,1,1-2,4.43,4.43,0,0,1,1.27-1.34A2.78,2.78,0,0,1,246.05,313.25Z" transform="translate(-5.11)"/><path class="cls-6" d="M268.4,326a8.64,8.64,0,0,1-.84,3.9,6.47,6.47,0,0,1-2.37,2.62,6.68,6.68,0,0,1-3.59.95,15.51,15.51,0,0,1-2-.12,12.06,12.06,0,0,1-1.79-.36,10.76,10.76,0,0,1-1.61-.63v-2.94a10.39,10.39,0,0,0,2.62,1,10.71,10.71,0,0,0,2.63.35,3.74,3.74,0,0,0,2.19-.61,3.87,3.87,0,0,0,1.36-1.65,5.35,5.35,0,0,0,.48-2.28,5.41,5.41,0,0,0-.4-2.22,4.32,4.32,0,0,0-1.28-1.63,14,14,0,0,0-2.4-1.51,21.78,21.78,0,0,1-2.07-1.28,7.76,7.76,0,0,1-1.58-1.49,6,6,0,0,1-1-1.95,8.82,8.82,0,0,1-.35-2.67,7,7,0,0,1,.81-3.59,6,6,0,0,1,2.35-2.4,6.72,6.72,0,0,1,3.44-.83,10.92,10.92,0,0,1,2.83.36,11.47,11.47,0,0,1,2.32.89l-.93,2.59a10.64,10.64,0,0,0-2.14-.88,7.82,7.82,0,0,0-2-.29,3.77,3.77,0,0,0-2,.52,3.34,3.34,0,0,0-1.3,1.41,4.5,4.5,0,0,0-.46,2.09,5.7,5.7,0,0,0,.4,2.27,4.19,4.19,0,0,0,1.3,1.58,19.39,19.39,0,0,0,2.38,1.5,13.45,13.45,0,0,1,2.82,1.91,6.83,6.83,0,0,1,1.67,2.33A7.61,7.61,0,0,1,268.4,326Z" transform="translate(-5.11)"/><path class="cls-6" d="M277.58,313.26a4.75,4.75,0,0,1,3.28,1.16,6.91,6.91,0,0,1,1.92,3.12,13.91,13.91,0,0,1,.64,4.36v1.94H274.1a11.2,11.2,0,0,0,1.13,5.49,3.6,3.6,0,0,0,3.31,1.83,6.57,6.57,0,0,0,2.06-.32,8.13,8.13,0,0,0,2.1-1v2.46a8.11,8.11,0,0,1-2.12.92,8.45,8.45,0,0,1-2.35.31,5.85,5.85,0,0,1-4-1.31,7.46,7.46,0,0,1-2.2-3.58,17.71,17.71,0,0,1-.69-5.14,19.4,19.4,0,0,1,.7-5.56,7.15,7.15,0,0,1,2.07-3.46A5.07,5.07,0,0,1,277.58,313.26Zm0,2.25a2.69,2.69,0,0,0-2.43,1.5,10.51,10.51,0,0,0-1,4.64h6.71a12.22,12.22,0,0,0-.35-3,5.48,5.48,0,0,0-1.06-2.25A2.35,2.35,0,0,0,277.58,315.51Z" transform="translate(-5.11)"/><path class="cls-6" d="M293.82,313.25a5.37,5.37,0,0,1,1.67.26l-.43,2.82a2.59,2.59,0,0,0-.67-.2,6.23,6.23,0,0,0-.77-.05,2.34,2.34,0,0,0-1.47.52,4.38,4.38,0,0,0-1.15,1.47,9.07,9.07,0,0,0-.74,2.19A12.82,12.82,0,0,0,290,323v10.19h-2.74V313.59h2.14l.37,3.47H290a9.59,9.59,0,0,1,1-2,4.45,4.45,0,0,1,1.28-1.34A2.76,2.76,0,0,1,293.82,313.25Z" transform="translate(-5.11)"/><path class="cls-6" d="M300.87,333.14,296,313.59h2.82l2.69,11.87c.16.72.31,1.45.45,2.2s.26,1.52.38,2.33h.15c.05-.46.14-1,.26-1.68s.28-1.37.47-2.17l2.88-12.55h2.82l-5,19.55Z" transform="translate(-5.11)"/><path class="cls-6" d="M312.86,306.25a1.41,1.41,0,0,1,1.22.53,2.55,2.55,0,0,1,.38,1.48,2.37,2.37,0,0,1-.41,1.46,1.39,1.39,0,0,1-1.19.53,1.47,1.47,0,0,1-1.21-.53,2.2,2.2,0,0,1-.45-1.46,2.29,2.29,0,0,1,.43-1.5A1.5,1.5,0,0,1,312.86,306.25Zm1.32,7.34v19.55h-2.73V313.59Z" transform="translate(-5.11)"/><path class="cls-6" d="M324.61,333.5a5.72,5.72,0,0,1-3.59-1.12,6.73,6.73,0,0,1-2.14-3.35,18.24,18.24,0,0,1-.71-5.52,18.69,18.69,0,0,1,.72-5.53,7.28,7.28,0,0,1,2.18-3.52,5.46,5.46,0,0,1,3.65-1.23,8.06,8.06,0,0,1,2,.23,6.71,6.71,0,0,1,1.64.66l-.87,2.26a6.21,6.21,0,0,0-1.31-.53,4.75,4.75,0,0,0-1.27-.18,2.9,2.9,0,0,0-2.16.88,5.72,5.72,0,0,0-1.32,2.61,16.91,16.91,0,0,0-.46,4.31,17.12,17.12,0,0,0,.44,4.2,5.39,5.39,0,0,0,1.32,2.56,3,3,0,0,0,2.2.86,5.91,5.91,0,0,0,1.59-.22,8.14,8.14,0,0,0,1.63-.65v2.32a6.53,6.53,0,0,1-1.74.71A7.68,7.68,0,0,1,324.61,333.5Z" transform="translate(-5.11)"/><path class="cls-6" d="M336.87,313.26a4.73,4.73,0,0,1,3.28,1.16,7,7,0,0,1,1.93,3.12,14.22,14.22,0,0,1,.63,4.36v1.94h-9.32a11.2,11.2,0,0,0,1.13,5.49,3.61,3.61,0,0,0,3.31,1.83,6.57,6.57,0,0,0,2.06-.32,8.35,8.35,0,0,0,2.11-1v2.46a8.41,8.41,0,0,1-2.12.92,8.55,8.55,0,0,1-2.35.31,5.86,5.86,0,0,1-4-1.31,7.46,7.46,0,0,1-2.2-3.58,17.72,17.72,0,0,1-.68-5.14,19.43,19.43,0,0,1,.69-5.56,7.16,7.16,0,0,1,2.08-3.46A5,5,0,0,1,336.87,313.26Zm0,2.25a2.7,2.7,0,0,0-2.43,1.5,10.51,10.51,0,0,0-1,4.64h6.71a12.72,12.72,0,0,0-.34-3,5.62,5.62,0,0,0-1.07-2.25A2.34,2.34,0,0,0,336.87,315.51Z" transform="translate(-5.11)"/><path class="cls-6" d="M355.26,328a6.45,6.45,0,0,1-.64,3,4.28,4.28,0,0,1-1.86,1.88,6.38,6.38,0,0,1-3,.64,9.14,9.14,0,0,1-2.48-.32,8.72,8.72,0,0,1-1.9-.77v-2.85a6.39,6.39,0,0,0,1.94,1.06,6.81,6.81,0,0,0,2.35.42,2.77,2.77,0,0,0,2.11-.78,3.11,3.11,0,0,0,.74-2.2,3.16,3.16,0,0,0-.31-1.45,3.56,3.56,0,0,0-1-1.17,11.93,11.93,0,0,0-1.75-1.19,16.07,16.07,0,0,1-2.15-1.55,5.82,5.82,0,0,1-1.45-1.84,5.72,5.72,0,0,1-.51-2.54,4.81,4.81,0,0,1,1.48-3.68,5.47,5.47,0,0,1,3.93-1.41,8.34,8.34,0,0,1,2.32.31,7.78,7.78,0,0,1,2.08.94l-1,2.2a7.33,7.33,0,0,0-1.6-.82,5.12,5.12,0,0,0-1.73-.3,2.86,2.86,0,0,0-2.06.73,2.58,2.58,0,0,0-.76,2,3.06,3.06,0,0,0,.3,1.41,3.83,3.83,0,0,0,1,1.14,19,19,0,0,0,1.84,1.25,19.11,19.11,0,0,1,2.12,1.55,5.87,5.87,0,0,1,1.44,1.83A5.74,5.74,0,0,1,355.26,328Z" transform="translate(-5.11)"/><path class="cls-6" d="M30.79,299.08,15.88,245.36h-.37c.13,2.07.23,4,.33,5.7s.16,3.28.21,4.65.07,2.56.07,3.55v39.82H6.53v-67.7H20.7l14.35,51.31h.28l14.36-51.31H63.9v67.7H54.09V259.3c0-1.11,0-2.35,0-3.73s.09-2.9.17-4.58.16-3.54.25-5.58h-.37L39.27,299.08Z" transform="translate(-5.11)"/><path class="cls-6" d="M91.92,246.75q7.27,0,10.74,4.56t3.48,13.46v34.31H98.91L97.38,292h-.23a19.37,19.37,0,0,1-3.12,4.4,11.38,11.38,0,0,1-3.92,2.71A13.22,13.22,0,0,1,85,300a10.12,10.12,0,0,1-6.76-2.2A12.48,12.48,0,0,1,74.49,292a23.94,23.94,0,0,1-1.19-7.59q0-7.83,4.43-12c2.94-2.78,7.14-4.29,12.57-4.54l6.11-.32v-2.78q0-5.13-1.48-7.62a5.22,5.22,0,0,0-4.86-2.47,14.55,14.55,0,0,0-4.63.83A30.7,30.7,0,0,0,80,258.1l-2.87-7.32a26.53,26.53,0,0,1,7-3A29.7,29.7,0,0,1,91.92,246.75Zm4.54,27.6-4.08.28c-3.12.18-5.43,1.05-6.94,2.59S83.17,281,83.17,284c0,2.75.48,4.79,1.43,6.14a4.72,4.72,0,0,0,4.08,2,6.39,6.39,0,0,0,5.7-3.45c1.38-2.3,2.08-5.43,2.08-9.38Z" transform="translate(-5.11)"/><path class="cls-6" d="M142.63,284.77a17.36,17.36,0,0,1-1.83,8.31,12.16,12.16,0,0,1-5.26,5.17,18.09,18.09,0,0,1-8.33,1.76,28.27,28.27,0,0,1-6.81-.79,28,28,0,0,1-5.74-2.09v-9.72a21.64,21.64,0,0,0,5.46,2.87,18.44,18.44,0,0,0,6.39,1.16,6.53,6.53,0,0,0,4.73-1.62,6.17,6.17,0,0,0,1.66-4.63,6.86,6.86,0,0,0-.67-3.08,8.46,8.46,0,0,0-2.36-2.73,30.17,30.17,0,0,0-4.79-3,31,31,0,0,1-5.54-4,15.51,15.51,0,0,1-3.61-5,15.83,15.83,0,0,1-1.27-6.6q0-6.43,4.07-10.23t10.93-3.8a22.59,22.59,0,0,1,6.62.95,26,26,0,0,1,6,2.71l-3,7.64a23,23,0,0,0-4.43-2.29,13.07,13.07,0,0,0-4.74-.9,6.19,6.19,0,0,0-4.45,1.5,5.28,5.28,0,0,0-1.57,4,6.28,6.28,0,0,0,.67,3,8.36,8.36,0,0,0,2.38,2.54c1.15.87,2.77,1.93,4.87,3.2a39.24,39.24,0,0,1,5.55,4,14.41,14.41,0,0,1,5.1,11.65Z" transform="translate(-5.11)"/><path class="cls-6" d="M165.78,291.44a11.3,11.3,0,0,0,2.55-.3,17.24,17.24,0,0,0,2.64-.86v7.83a19,19,0,0,1-3.8,1.39,18.06,18.06,0,0,1-4.4.51,11.14,11.14,0,0,1-6.34-1.65,9.31,9.31,0,0,1-3.59-4.93,25.61,25.61,0,0,1-1.14-8.29V255.83h-4.9V250.6l5.51-2.6,2.4-11.53h6.72v11.26h8.94v8.1h-8.94v28.66a11.24,11.24,0,0,0,.95,5.24A3.54,3.54,0,0,0,165.78,291.44Z" transform="translate(-5.11)"/><path class="cls-6" d="M193.66,246.85a14.35,14.35,0,0,1,9.21,2.94,17.82,17.82,0,0,1,5.58,8.12,34.93,34.93,0,0,1,1.88,11.9v6h-24.5q.09,8.16,2.71,12.11t8,4a20.45,20.45,0,0,0,5.81-.83,23.58,23.58,0,0,0,5.86-2.78v8.34a22,22,0,0,1-6.07,2.57,28.27,28.27,0,0,1-6.85.81q-6.72,0-10.95-3.29a18.48,18.48,0,0,1-6.16-9.22,44.83,44.83,0,0,1-1.92-13.8,47.7,47.7,0,0,1,1.94-14.61A18.73,18.73,0,0,1,184,250,14.89,14.89,0,0,1,193.66,246.85Zm.14,7.77a6.3,6.3,0,0,0-5.61,3.34q-2,3.33-2.27,10.56h15.29a28.68,28.68,0,0,0-.81-7.16,11.43,11.43,0,0,0-2.46-4.93A5.37,5.37,0,0,0,193.8,254.62Z" transform="translate(-5.11)"/><path class="cls-6" d="M239.27,246.75a10.83,10.83,0,0,1,2,.19,22.31,22.31,0,0,1,2.27.55l-1.11,10.24a7.28,7.28,0,0,0-1.9-.51,16.65,16.65,0,0,0-2.18-.14,6.71,6.71,0,0,0-3.84,1.16,9.46,9.46,0,0,0-2.9,3.24,17.63,17.63,0,0,0-1.8,4.93,27.21,27.21,0,0,0-.58,6.23v26.44H219.5V247.73h7.55l1.39,8.79H229a22.69,22.69,0,0,1,2.52-4.88,13.25,13.25,0,0,1,3.45-3.54A7.47,7.47,0,0,1,239.27,246.75Z" transform="translate(-5.11)"/><path class="cls-6" d="M250.89,299.08v-67.7h10.19V290.1h18.48v9Z" transform="translate(-5.11)"/><path class="cls-6" d="M291.83,228a5,5,0,0,1,4.1,1.62,7.09,7.09,0,0,1,1.32,4.59,6.59,6.59,0,0,1-1.39,4.47,5.07,5.07,0,0,1-4,1.59,5.36,5.36,0,0,1-4.12-1.59,6.33,6.33,0,0,1-1.48-4.47,6.73,6.73,0,0,1,1.41-4.63A5.34,5.34,0,0,1,291.83,228Zm4.77,19.78v51.35h-9.72V247.73Z" transform="translate(-5.11)"/><path class="cls-6" d="M327.26,255.87h-8.2v43.21h-9.73V255.87h-6.11V250.6l6.11-3v-2.5a38,38,0,0,1,1.19-10.33,11.29,11.29,0,0,1,3.91-6.18,11.82,11.82,0,0,1,7.32-2.06,19.54,19.54,0,0,1,4.33.44,30.43,30.43,0,0,1,4.37,1.36l-2.27,7.5a16.07,16.07,0,0,0-2.41-.69,12.06,12.06,0,0,0-2.31-.23,3.41,3.41,0,0,0-3.4,2.13c-.64,1.42-1,3.93-1,7.55v3.15h8.2Z" transform="translate(-5.11)"/><path class="cls-6" d="M348.7,291.44a11.21,11.21,0,0,0,2.54-.3,16.55,16.55,0,0,0,2.64-.86v7.83a19,19,0,0,1-3.79,1.39,18.12,18.12,0,0,1-4.4.51,11.17,11.17,0,0,1-6.35-1.65,9.41,9.41,0,0,1-3.59-4.93,25.92,25.92,0,0,1-1.13-8.29V255.83h-4.91V250.6l5.51-2.6,2.41-11.53h6.71v11.26h8.94v8.1h-8.94v28.66a11.24,11.24,0,0,0,1,5.24A3.57,3.57,0,0,0,348.7,291.44Z" transform="translate(-5.11)"/></g></g></svg>